<svg xmlns="http://www.w3.org/2000/svg" viewBox="0 0 240 164">
  <path d="M146.19,93.7c-3.51-1.8-6.54-4.32-10.19-5.9a23.08,23.08,0,0,0-14.65-1.09c-4.21,1.08-7.91,3.32-11.79,5.15A65.54,65.54,0,0,1,80,98c-9.09-.26-18.07-2.39-27.15-1.8C44.71,96.7,37,99.39,29.35,102a11.61,11.61,0,0,0-4.06,2c-3.1,2.82-1.42,7.37-1.1,11.27C24.73,122.07,20,128.92,13,131.6c-2.6,1-5.49,1.47-7.77,3S1.54,139.1,3.29,141A6.61,6.61,0,0,0,5,142.29a50.73,50.73,0,0,0,31.71,5.57c6.52-1,12.92-3.21,19.51-2.9,9.23.43,17.32,5.78,26.51,6.69,6.58.65,13.2-1,19.83-1.15,20.77-.37,39.79,14.41,60.24,11,12-2,21.66-10,32.86-14.46,10.41-4.17,22-5.24,33.24-6.64,2.44-.3,5.07-.7,6.81-2.26,2.24-2,2.22-5.35.72-7.79s-4.16-4.13-6.86-5.55c-9.17-4.82-20.82-3.53-24.09-12.53-1.46-4-.85-8.54-2.59-12.48-3.64-8.27-10.2-5.7-15.54-3.74C185.63,96.66,156.64,99.07,146.19,93.7Z" fill="#eaeff2"/>
  <path d="M139,120c3.43-.89,6.53-2,9.71-2a12.51,12.51,0,0,1,3.06.37,18.61,18.61,0,0,1,4.49,1.79,5.25,5.25,0,0,0,2.67.87c2.53,0,3.48-2.87,1.92-4.78-.81-1-7.38-8.07-8.85-11.27s-1.48-7.39,1-9.89c1.9-1.91,5-2.65,6.17-5.08a4.68,4.68,0,0,0-1.09-5.9c-1.63-1.35-13.12-5.43-24.55-12.43-7.11-4.35-17.93-12-24.37-12a4.67,4.67,0,0,0-4.9,3.51c-1.49,4.68,3.4,5.17.92,10.09-2.17,4.31-8,8.78-10.32,13.27s-3.51,13.21.47,20.61c.79,1.46.86,3.85-.95,4.95-1.34.82-3.64,2-4.71,3.14-3.58,3.89,9.28,7,13.07,7h0c6.49,0,12-4.23,18.77-4.23l.94,0a25.15,25.15,0,0,1,6.6,1.59A17.66,17.66,0,0,0,139,120Z" fill="#0066c6"/>
  <path d="M159.25,118.63a.91.91,0,0,0-.2-.93l-.88-1c-3.6-4.06-7.09-8.18-8.27-10.76a13.09,13.09,0,0,1-.51-1.29,8.66,8.66,0,0,1-2.83,3.2c-1.58,1,.75,3-.26,4.52-.71,1.09-2.18,1.35-3.49,1.44-2.8.2-5.85,0-8-1.78a1.68,1.68,0,0,1-.55-.69,1.6,1.6,0,0,1,1.2-1.84c2.06-.6,2.13-2.27,5.09-3.35,7.31-2.69,6.13-3.63,7.7-8,2.79-7.77-3.23-6.92-2-10.59.48-1.44,3.29,2.65,3.47,2.94a11.33,11.33,0,0,1,.75,4.13,8.81,8.81,0,0,1,.88-1.06,3.76,3.76,0,0,1,.43-.52c1.9-1.91,5.34-4,3.74-6-2.41-3.11-7.77-4.11-13.77-7.78-1.08-.66-2.25-1.4-3.47-2.17-2-1-4-2.18-6-3.41-1.14-.7-2.37-1.48-3.67-2.3l-1-.62c-7-3.66-13.42-5.5-15.19,0-1.49,4.68,3.4,5.17.92,10.09-1.08,2.16-4.29,3.68-5.09,6.57-1.16,4.17,2.12,3.31,1,7.36-.65,2.32-5.53-6.28-6.24-.65-.63,5-5.2,9.83-1,17.1,1.19,2.06,2.92,5.95,7,5.36,8.31-1.19,9.93-3.24,13.93-2.5,2.47.46,9.86,4.22,11.53,4.22a15.27,15.27,0,0,0,3.82-.48l2.08-.56a30.46,30.46,0,0,1,8.19-1.48,14.67,14.67,0,0,1,3.6.44,20.81,20.81,0,0,1,5.11,2,3.06,3.06,0,0,0,1.51.54C159.17,118.81,159.22,118.7,159.25,118.63Z" fill="#fff" opacity="0.2"/>
  <path d="M162.92,2.82,118.58,56.34a2.24,2.24,0,0,0,.72,3.44,135.58,135.58,0,0,1,12.15,7.11c1.28.81,2.49,1.58,3.6,2.26a165.43,165.43,0,0,0,19,9.68l.51.23a1.5,1.5,0,0,0,2.1-1.16L166.89,4.57A2.25,2.25,0,0,0,162.92,2.82Z" fill="#f78b7f"/>
  <path d="M162.92,2.82,130.43,42a.75.75,0,0,0,1,1.07l3-2.33a14.28,14.28,0,0,0,2.06-2.17l24.54-32a2,2,0,0,1,3.53,1.64s-4,21-7.44,28.5a60,60,0,0,0-3.66,9.84c-.74,3.59-1.29,13.61-1.42,16.2a10.37,10.37,0,0,1-.18,1.57c-.79,3.81-2,1.76-6.08,3.73-2.21,1.05-3.91.33-5.64-.9a42.2,42.2,0,0,0-10.93-5.5l-8.87-1.84a.71.71,0,0,0-.65.18c3.87,1.95,7.9,4.49,11.67,6.88,1.28.81,2.49,1.58,3.6,2.26q1.32.81,2.64,1.56l7.17,3.82c3.49,1.74,6.67,3.17,9.18,4.29l.34.15a1.5,1.5,0,0,0,2.09-1.16L166.89,4.57A2.25,2.25,0,0,0,162.92,2.82Z" fill="#f98072"/>
  <path d="M156.29,16.34a24.42,24.42,0,0,0,1.46,2.09.38.38,0,0,0,.59-.46,23.57,23.57,0,0,1-1.42-2c-.32-.5-.65-1-1.11-1.65a.37.37,0,1,0-.61.44C155.65,15.35,156,15.85,156.29,16.34Z" fill="#eb6f62"/>
  <path d="M165.44,7.9l-.4-.53a4.51,4.51,0,0,0,.3-.7.37.37,0,1,0-.71-.23c0,.08-.06.17-.1.25L164,6,164,5.92a.38.38,0,0,0-.61.44l.07.09.71,1A27.34,27.34,0,0,1,161,11.27l-1.25-1.69a.37.37,0,1,0-.61.44l1.33,1.81-.86.89c-.44.46-.84.87-1.15,1.21a.37.37,0,1,0,.55.51c.3-.33.7-.74,1.13-1.2l.77-.81,1.26,1.65a.38.38,0,0,0,.59-.46l-1.33-1.74a30.19,30.19,0,0,0,3.16-3.81l.22.29a.38.38,0,1,0,.6-.46Z" fill="#eb6f62"/>
  <path d="M163.08,19.37c-.5.55-1.13,1.19-1.85,1.89L160.16,20a.38.38,0,0,0-.58.47l1.11,1.35c-1.2,1.15-2.63,2.47-4.2,3.88q-2-2.35-3.78-4.76,1.27-1.22,2.49-2.45a.38.38,0,0,0-.53-.53q-1.18,1.19-2.41,2.37l-.68-.9a.37.37,0,1,0-.6.44l.74,1q-2.47,2.36-5.1,4.65l-.33-.43a.37.37,0,1,0-.6.44L146,26l-1.29,1.11a.38.38,0,0,0,.48.57l1.26-1.09q1.72,2.28,3.68,4.61c-1.82,1.56-3.7,3.13-5.55,4.67-1.05-1.23-2.19-2.61-3.49-4.2a.37.37,0,1,0-.58.47c1.3,1.59,2.44,3,3.49,4.21-2.08,1.72-4.11,3.37-6,4.88l-1.62-2a.38.38,0,1,0-.58.47l1.61,2c-2.72,2.18-5.07,4-6.68,5.18L130,46a.37.37,0,1,0-.56.5l.72.79c-.44.31-.81.56-1.08.73a.37.37,0,1,0,.39.64c.3-.18.71-.46,1.19-.81,1.68,1.83,3.18,3.41,4.57,4.83l-2.84,2.06L128,57.91l-1-1a.37.37,0,0,0-.52.54l.91.88-1.48,1.09a.37.37,0,0,0,.45.6L128,58.89c2.08,2,3.66,3.33,5.7,5.08l-1,.77a.38.38,0,0,0,.47.58l1.07-.86,2.35,2a.37.37,0,0,0,.49-.57L134.87,64c2.16-1.72,4.38-3.45,6.69-5.23l2.76,2.51,2.7,2.45c-1.5,1.19-2.9,2.31-4,3.24a.38.38,0,0,0,.48.58c1.16-1,2.59-2.09,4.12-3.31,1.65,1.52,3.43,3.19,5.48,5.21-1.68,1.44-3.2,2.77-4.62,4a.37.37,0,1,0,.5.56c1.42-1.28,2.95-2.62,4.65-4.07L154.66,71a.37.37,0,1,0,.53-.53l-1-1c1.11-.95,2.3-1.94,3.59-3a.37.37,0,0,0-.48-.58c-1.31,1.08-2.51,2.09-3.64,3-2-2-3.81-3.68-5.45-5.19L153,60l1.91-1.5c.71.7,1.48,1.47,2.31,2.33a.37.37,0,1,0,.54-.52c-.81-.84-1.56-1.59-2.26-2.27L159,55.23a.38.38,0,0,0-.47-.59L155,57.45c-2.29-2.22-4-3.65-5.42-4.84,2-1.51,3.9-3,5.8-4.56L158,50.6a.38.38,0,0,0,.52-.54l-2.59-2.48c1.28-1,2.54-2.07,3.76-3.1a.37.37,0,0,0-.48-.57c-1.24,1-2.52,2.1-3.82,3.15-1.9-1.81-3.49-3.33-5.07-4.94q1.21-1,2.38-2,1.63-1.26,3.2-2.56,1.78,1.86,3.7,3.74a.37.37,0,1,0,.52-.54q-1.89-1.85-3.64-3.68c1.45-1.2,2.86-2.42,4.21-3.65a.38.38,0,1,0-.5-.56c-1.36,1.23-2.78,2.45-4.23,3.66q-2.52-2.65-4.75-5.27c1.82-1.55,3.57-3.08,5.19-4.52,1.12,1.33,2.27,2.66,3.46,4a.38.38,0,0,0,.55-.51c-1.18-1.29-2.33-2.61-3.45-3.95,1.57-1.41,3-2.72,4.2-3.87.5.59,1,1.18,1.5,1.76a.37.37,0,1,0,.57-.49q-.77-.88-1.53-1.79c.75-.73,1.41-1.4,1.93-2a.37.37,0,1,0-.55-.51ZM144.52,36.89c1.75,2,3.24,3.66,4.7,5.16-2,1.62-4,3.23-6.13,4.82-1.25-1.3-2.72-2.93-4.56-5.1C140.41,40.26,142.44,38.61,144.52,36.89ZM131.29,47.4c1.62-1.19,4-3,6.66-5.16,1.82,2.16,3.29,3.79,4.54,5.09-2.19,1.65-4.41,3.28-6.62,4.9C134.47,50.81,133,49.23,131.29,47.4Zm16.81,5,.25.21L144,55.9l-2.45,1.88c-1.62-1.5-3.31-3.1-5.2-5,2.22-1.62,4.44-3.25,6.62-4.9A56.68,56.68,0,0,0,148.1,52.39Zm-13.81,11.1c-2.06-1.76-3.63-3.11-5.68-5.05l4.25-3.09,2.93-2.13c1.9,1.92,3.59,3.53,5.21,5C138.68,60,136.45,61.76,134.28,63.49Zm20.09-5.56-1.83,1.44-4.94,3.88-2.79-2.53-2.66-2.42,2.34-1.8,4.45-3.42C150.41,54.28,152.08,55.7,154.38,57.92Zm.43-10.39c-1.92,1.54-3.88,3.07-5.85,4.6l-.39-.32a56.22,56.22,0,0,1-5-4.4c2.09-1.59,4.14-3.2,6.12-4.82C151.33,44.2,152.91,45.72,154.81,47.53ZM155.38,37c-1,.85-2.08,1.7-3.15,2.53q-1.19,1-2.43,2c-1.46-1.5-3-3.13-4.7-5.17,1.85-1.53,3.72-3.11,5.55-4.66Q152.87,34.35,155.38,37Zm-4.65-6.31q-2-2.33-3.68-4.61,2.63-2.29,5.11-4.65,1.81,2.39,3.77,4.74C154.31,27.61,152.55,29.13,150.73,30.69Z" fill="#eb6f62"/>
  <path d="M191.6,120.9c-1.44-8.3-8.86-8.4-12.68-7.14-5.62,1.85-10.31,2.3-13.77-4.14-1.15-2.13-5-8.62-9.16-7.91a19.64,19.64,0,0,0-2.54.73,9,9,0,0,0,.55,1.62c1.07,2.32,5.78,7.64,7.55,9.64.49.55.84,1,1,1.14a5.41,5.41,0,0,1,.78,5.7,4.78,4.78,0,0,1-4.44,2.75,7.46,7.46,0,0,1-3.83-1.19,16.53,16.53,0,0,0-3.88-1.54,10.21,10.21,0,0,0-2.51-.3,27.26,27.26,0,0,0-7,1.32l-2.15.58a19.91,19.91,0,0,1-11.2-.39l-.34-.11a21.85,21.85,0,0,0-5.68-1.37l-.81,0c-3.07,0-5.9,1-8.89,2s-6.3,2.2-9.88,2.2h0c-2.18,0-13.6-1.71-15.61-6.28a4,4,0,0,1,.88-4.45,18.17,18.17,0,0,1,4.2-3l1-.58c.6-.36.41-1.45.14-2h0a23.38,23.38,0,0,1-7.21-.58c-8-2-15.84-1.79-19.89,0S56.4,113,56.88,118.86c.88,10.66,12.61,11.95,20.38,11.74,4.53-.12,9.37-1,13.31,2.11,2,1.57,3.71,4.12,6,4.65,3.36.77,6.29-3.13,9.6-4.2,5.73-1.86,11.52,4.94,17.27,3.25a22,22,0,0,0,4.74-2.6c8.48-5.1,18.21-3.21,27.33-1s18,3.7,27.25,1.55C187.45,133.22,193.08,129.44,191.6,120.9Z" fill="#9ac1e9"/>
  <path d="M142.62,136.23c-1-.32-4.84-1.58-6.89,2-1,1.81-2.43,3.77-1.78,6.09a4.24,4.24,0,0,0,3.38,3.07,6.45,6.45,0,0,0,3.91-1.11c1.76-1,3.47-2.21,5.41-2.61,1.16-.24,2.42-.21,3.42-.93a3.08,3.08,0,0,0,.7-3.88C148.87,136.11,144.7,136.9,142.62,136.23Z" fill="#9ac1e9"/>
  <path d="M78.17,135.2c-.57.07-1.24.23-1.46.76s.27,1.27.84,1.61a5.42,5.42,0,0,0,3.94.35c1.4-.33,4-1.42,3.15-2.57S80.28,134.93,78.17,135.2Z" fill="#9ac1e9"/>
  <path d="M170.92,105.39a2.77,2.77,0,0,1,1.76-.62,5.66,5.66,0,0,1,3.79,1,2.91,2.91,0,0,1,.86,3.11c-.45,1.16-3.28.87-4.41-.21C172.18,107.9,170.07,106.38,170.92,105.39Z" fill="#9ac1e9"/>
</svg>
